HIERARCHY
ROOT SpineBase
{
  OFFSET 0.000000 0.000000 0.000000
  CHANNELS 6 Xposition Yposition Zposition Zrotation Xrotation Yrotation
  JOINT SpineMid
  {
    OFFSET 0.000000 32.092682 0.000000
    CHANNELS 3 Zrotation Xrotation Yrotation
    JOINT SpineShoulder
    {
      OFFSET 0.162557 23.882133 -0.719089
      CHANNELS 3 Zrotation Xrotation Yrotation
      JOINT Neck
      {
        OFFSET 0.120884 7.908996 -0.578804
        CHANNELS 3 Zrotation Xrotation Yrotation
        JOINT Head
        {
          OFFSET -4.953244 14.487595 -0.948772
          CHANNELS 3 Zrotation Xrotation Yrotation
          End Site
          {
            OFFSET 0 0 0
          }
        }
      }
      JOINT ShoulderLeft
      {
        OFFSET -18.377153 -6.351281 5.540834
        CHANNELS 3 Zrotation Xrotation Yrotation
        JOINT ElbowLeft
        {
          OFFSET -1.649087 -27.187364 0.990904
          CHANNELS 3 Zrotation Xrotation Yrotation
          JOINT WristLeft
          {
            OFFSET 0.069771 -20.173902 -5.798849
            CHANNELS 3 Zrotation Xrotation Yrotation
            JOINT HandLeft
            {
              OFFSET 0.939395 -6.674977 -2.747249
              CHANNELS 3 Zrotation Xrotation Yrotation
              JOINT HandTipLeft
              {
                OFFSET 3.285410 -7.101825 -4.142360
                CHANNELS 3 Zrotation Xrotation Yrotation
                End Site
                {
                  OFFSET 0 0 0
                }
              }
              JOINT ThumbLeft
              {
                OFFSET -2.507129 -1.687224 -3.683675
                CHANNELS 3 Zrotation Xrotation Yrotation
                End Site
                {
                  OFFSET 0 0 0
                }
              }
            }
          }
        }
      }
      JOINT ShoulderRight
      {
        OFFSET 15.686817 -2.828598 -7.447601
        CHANNELS 3 Zrotation Xrotation Yrotation
        JOINT ElbowRight
        {
          OFFSET 9.827980 -22.160631 -0.580018
          CHANNELS 3 Zrotation Xrotation Yrotation
          JOINT WristRight
          {
            OFFSET -24.754786 -9.868732 -13.650712
            CHANNELS 3 Zrotation Xrotation Yrotation
            JOINT HandRight
            {
              OFFSET -4.424571 -0.610428 1.779420
              CHANNELS 3 Zrotation Xrotation Yrotation
              JOINT HandTipRight
              {
                OFFSET -5.341391 -1.706558 1.254129
                CHANNELS 3 Zrotation Xrotation Yrotation
                End Site
                {
                  OFFSET 0 0 0
                }
              }
              JOINT ThumbRight
              {
                OFFSET 1.451175 -6.450174 1.557843
                CHANNELS 3 Zrotation Xrotation Yrotation
                End Site
                {
                  OFFSET 0 0 0
                }
              }
            }
          }
        }
      }
    }
  }
  JOINT HipLeft
  {
    OFFSET -6.041694 0.003706 -1.596496
    CHANNELS 3 Zrotation Xrotation Yrotation
    JOINT KneeLeft
    {
      OFFSET -0.458412 -34.750595 3.370963
      CHANNELS 3 Zrotation Xrotation Yrotation
      JOINT AnkleLeft
      {
        OFFSET 1.266184 -36.054163 7.042693
        CHANNELS 3 Zrotation Xrotation Yrotation
        JOINT FootLeft
        {
          OFFSET -1.386739 -7.902997 -6.167118
          CHANNELS 3 Zrotation Xrotation Yrotation
          End Site
          {
            OFFSET 0 0 0
          }
        }
      }
    }
  }
  JOINT HipRight
  {
    OFFSET 7.537905 1.976725 -5.554452
    CHANNELS 3 Zrotation Xrotation Yrotation
    JOINT KneeRight
    {
      OFFSET 8.533965 -34.397883 -0.119130
      CHANNELS 3 Zrotation Xrotation Yrotation
      JOINT AnkleRight
      {
        OFFSET 2.434772 -36.593616 5.800613
        CHANNELS 3 Zrotation Xrotation Yrotation
        JOINT FootRight
        {
          OFFSET -3.146213 -3.495016 -13.458171
          CHANNELS 3 Zrotation Xrotation Yrotation
          End Site
          {
            OFFSET 0 0 0
          }
        }
      }
    }
  }
}
MOTION
Frames: 14
Frame Time: 0.033333
-69.806941 79.550157 324.957431 -0.000000 0.000000 16.249470 -0.000000 0.000000 -16.249470 -0.000000 0.000000 0.000000 -0.000000 0.000000 0.000000 0.000000 0.000000 0.000000 -0.000000 0.000000 0.000000 -0.000000 0.000000 0.000000 -0.000000 0.000000 0.000000 -0.000000 0.000000 0.000000 0.000000 0.000000 0.000000 0.000000 0.000000 0.000000 -0.000000 0.000000 0.000000 -0.000000 0.000000 0.000000 -0.000000 0.000000 0.000000 -0.000000 0.000000 0.000000 0.000000 0.000000 0.000000 0.000000 0.000000 0.000000 -0.000000 0.000000 -16.249470 -0.000000 0.000000 0.000000 -0.000000 0.000000 0.000000 0.000000 0.000000 0.000000 -0.000000 0.000000 -16.249470 -0.000000 0.000000 0.000000 -0.000000 0.000000 0.000000 0.000000 0.000000 0.000000
-69.942821 79.509995 324.840469 -0.179494 0.220713 16.393251 0.109907 -0.262398 -16.392654 -0.000000 0.000000 0.000000 -0.000000 0.000000 0.000000 0.000000 0.000000 0.000000 -0.000000 0.000000 0.000000 -0.000000 0.000000 0.000000 -0.662255 -2.782516 -0.136662 -1.677793 0.240894 0.361595 0.000000 0.000000 0.000000 0.000000 0.000000 0.000000 -2.408877 1.234241 0.642201 12.388315 -5.909098 -3.170736 13.167697 13.285657 -10.154658 -6.602003 -4.553230 2.217004 0.000000 0.000000 0.000000 0.000000 0.000000 0.000000 0.109907 -0.262398 -16.392654 -0.000000 0.000000 0.000000 0.865115 0.107496 -0.695184 0.000000 0.000000 0.000000 0.109907 -0.262398 -16.392654 -0.000000 0.000000 0.000000 -0.000000 0.000000 0.000000 0.000000 0.000000 0.000000
-70.077061 79.471588 324.734521 -0.350780 0.420948 16.540187 0.216436 -0.503386 -16.537948 -0.000000 0.000000 0.000000 -0.000000 0.000000 0.000000 0.000000 0.000000 0.000000 -0.000000 0.000000 0.000000 -0.000000 0.000000 0.000000 -1.223559 -5.167327 -0.285042 -3.302944 0.305689 0.809586 0.000000 0.000000 0.000000 0.000000 0.000000 0.000000 -4.489441 2.234638 1.216816 24.979039 -12.441824 -4.918576 21.141753 21.879253 -20.784692 -8.422759 -7.004649 2.700412 0.000000 0.000000 0.000000 0.000000 0.000000 0.000000 0.216436 -0.503386 -16.537948 -0.000000 0.000000 0.000000 1.606813 0.247005 -1.301725 0.000000 0.000000 0.000000 0.216436 -0.503386 -16.537948 -0.000000 0.000000 0.000000 -0.000000 0.000000 0.000000 0.000000 0.000000 0.000000
-70.209661 79.434936 324.639587 -0.513957 0.600868 16.690775 0.319761 -0.723148 -16.686062 -0.000000 0.000000 0.000000 -0.000000 0.000000 0.000000 0.000000 0.000000 0.000000 -0.000000 0.000000 0.000000 -0.000000 0.000000 0.000000 -1.677528 -7.135924 -0.431662 -4.788005 0.285867 1.308740 0.000000 0.000000 0.000000 0.000000 0.000000 0.000000 -6.247672 3.018398 1.707411 36.980363 -18.700949 -5.044090 23.496524 27.506953 -28.340224 -7.371633 -7.773736 2.411965 0.000000 0.000000 0.000000 0.000000 0.000000 0.000000 0.960941 -1.372159 -16.590946 -0.799762 0.438839 -0.080330 2.225464 0.421857 -1.819902 0.000000 0.000000 0.000000 0.319761 -0.723148 -16.686062 -0.000000 0.000000 0.000000 -0.000000 0.000000 0.000000 0.000000 0.000000 0.000000
-70.340620 79.400038 324.555666 -0.669120 0.760625 16.845515 0.420050 -0.921857 -16.837695 -0.279463 0.817505 -0.030969 0.279933 -0.817344 0.034959 0.000000 0.000000 0.000000 0.279933 -0.817344 0.034959 -0.240294 -0.924234 0.064085 -1.782772 -7.752098 -0.600678 -6.055894 0.273320 1.826481 0.000000 0.000000 0.000000 0.000000 0.000000 0.000000 -7.409963 2.788507 2.028428 47.666090 -23.909453 -3.829259 23.232421 31.789014 -33.052213 -5.816420 -8.089425 2.032299 0.000000 0.000000 0.000000 0.000000 0.000000 0.000000 1.250679 -1.764032 -16.710045 -1.037618 0.567625 -0.103041 2.721692 0.634775 -2.250105 0.000000 0.000000 0.000000 0.420050 -0.921857 -16.837695 -0.000000 0.000000 0.000000 -0.000000 0.000000 0.000000 0.000000 0.000000 0.000000
-70.469939 79.366895 324.482759 -0.816357 0.900360 17.004920 0.517465 -1.099679 -16.993539 -0.365066 0.972089 -0.038500 1.147025 -0.534224 0.255116 0.000000 0.000000 0.000000 0.365772 -0.971823 0.044699 -0.303109 -1.131289 0.080451 -1.944429 -8.654234 -0.718382 -7.046572 0.347931 2.334705 0.000000 0.000000 0.000000 0.000000 0.000000 0.000000 -8.468532 3.038227 2.293004 56.580601 -27.755875 -1.834833 22.610719 35.307425 -35.807911 -4.622263 -8.519598 1.684847 0.000000 0.000000 0.000000 0.000000 0.000000 0.000000 1.524948 -2.122837 -16.833813 -1.260468 0.687269 -0.123836 3.096224 0.887887 -2.592705 0.000000 0.000000 0.000000 0.705290 -1.929064 -17.173048 -0.424328 0.736945 0.187201 -0.000000 0.000000 0.000000 0.000000 0.000000 0.000000
-70.639319 79.336632 324.387380 -1.010127 1.074334 17.264197 0.464148 -0.505622 -17.267675 -0.067812 0.426062 -0.034262 1.299014 -0.582013 0.318684 0.000000 0.000000 0.000000 0.485583 -1.154810 0.058042 -0.371792 -1.358339 0.098099 -1.646792 -9.205117 -0.945779 -7.725103 1.382073 3.183950 0.000000 0.000000 0.000000 0.000000 0.000000 0.000000 -9.797203 3.386468 2.648853 65.403110 -30.835021 2.009527 26.306303 39.078268 -38.626946 -5.718261 -10.136489 3.060755 0.000000 0.000000 0.000000 0.000000 0.000000 0.000000 1.869574 -2.558783 -17.046359 -1.531077 0.819821 -0.148467 3.584736 2.071476 -3.198223 0.000000 0.000000 0.000000 1.024510 -2.312485 -17.443236 -0.656904 0.828002 0.212746 -0.000000 0.000000 0.000000 0.000000 0.000000 0.000000
-70.794211 79.305917 324.324093 -1.174546 1.198238 17.473324 0.501006 -0.540824 -17.477486 -0.067827 0.460264 -0.040173 1.404716 -0.581142 0.378502 0.000000 0.000000 0.000000 0.603357 -1.292337 0.070662 -0.442403 -1.572435 0.116116 -1.380992 -9.158315 -1.059145 -8.231019 1.700086 3.670681 0.000000 0.000000 0.000000 0.000000 0.000000 0.000000 -10.521407 3.481975 2.815982 71.162555 -32.431071 4.759472 29.396514 44.260702 -36.529541 -6.046787 -12.463592 0.838910 0.000000 0.000000 0.000000 0.000000 0.000000 0.000000 2.176106 -2.914930 -17.212337 -1.771518 0.936369 -0.169834 3.878334 2.466784 -3.504899 0.000000 0.000000 0.000000 1.336352 -2.589530 -17.649426 -0.879994 0.868016 0.225492 -0.000000 0.000000 0.000000 0.000000 0.000000 0.000000
-70.904062 79.285474 324.300867 -1.279476 1.253838 17.629531 0.506135 -0.536664 -17.635310 -0.063161 0.467594 -0.044373 1.472091 -0.488643 0.441108 0.000000 0.000000 0.000000 0.699237 -1.362323 0.080247 -0.508952 -1.802704 0.132655 -1.015714 -9.520634 -1.280700 -8.842347 0.972917 3.517837 0.000000 0.000000 0.000000 0.000000 0.000000 0.000000 -10.599431 3.299637 2.758648 72.536475 -32.530855 5.882965 33.723622 51.298184 -29.275324 -6.559063 -16.895651 -6.941626 0.000000 0.000000 0.000000 0.000000 0.000000 0.000000 2.358532 -3.123212 -17.342909 -1.908377 1.017328 -0.181731 3.856980 2.462805 -3.487114 0.000000 0.000000 0.000000 1.563835 -2.711430 -17.792732 -1.034049 0.853855 0.223623 -0.000000 0.000000 0.000000 0.000000 0.000000 0.000000
-70.968544 79.258786 324.296763 -1.327729 1.272769 17.682131 0.484652 -0.510285 -17.690069 -0.059055 0.468862 -0.047394 1.534323 -0.386624 0.495129 0.000000 0.000000 0.000000 0.771710 -1.401558 0.087270 -0.389350 -2.322476 0.096554 -0.984414 -8.733420 -1.237605 -9.495491 -0.925705 2.961959 0.000000 0.000000 0.000000 0.000000 0.000000 0.000000 -10.081001 2.794480 2.471477 73.824508 -32.554930 6.713887 29.496439 52.883469 -26.341111 -3.782990 -16.845746 -8.077073 0.000000 0.000000 0.000000 0.000000 0.000000 0.000000 2.424537 -3.249696 -17.384348 -1.962882 1.096526 -0.186238 4.891992 -2.261000 -3.403352 0.000000 0.000000 0.000000 1.681500 -2.761345 -17.838253 -1.114801 0.844518 0.222133 -0.000000 0.000000 0.000000 0.000000 0.000000 0.000000
-71.006577 79.222332 324.318307 -1.337989 1.246224 17.665061 0.444453 -0.462905 -17.675864 -0.045441 0.453867 -0.048734 1.570391 -0.204870 0.555910 0.000000 0.000000 0.000000 0.821205 -1.392675 0.091296 -0.329281 -3.477348 0.073264 -1.601837 -6.532066 -0.791688 -12.420899 -1.887657 4.998870 0.000000 0.000000 0.000000 0.000000 0.000000 0.000000 -9.037615 1.845857 1.900357 72.352928 -31.714308 5.906595 25.355439 49.462246 -29.199221 -1.978422 -13.980961 -4.423224 0.000000 0.000000 0.000000 0.000000 0.000000 0.000000 2.446631 -3.286702 -17.364242 -1.983909 1.152788 -0.187854 4.590999 -1.308515 -3.354994 0.000000 0.000000 0.000000 1.727298 -2.727617 -17.816082 -1.137186 0.825781 0.217540 -0.000000 0.000000 0.000000 0.000000 0.000000 0.000000
-71.074759 79.182045 324.332934 -1.393553 1.223679 17.576035 0.432747 -0.437059 -17.589116 -0.031663 0.444863 -0.050512 1.564676 -0.034642 0.608869 0.000000 0.000000 0.000000 0.882506 -1.381203 0.096262 -0.620117 -4.635248 0.138729 -3.253378 -2.293853 0.526903 -12.801283 -4.363764 4.646739 0.000000 0.000000 0.000000 0.000000 0.000000 0.000000 -8.110589 0.720038 1.258691 69.717761 -30.462609 3.968708 20.572202 43.915252 -34.510932 -1.379284 -9.299147 2.547625 0.000000 0.000000 0.000000 0.000000 0.000000 0.000000 2.598498 -3.385509 -17.256779 -2.098461 1.229956 -0.197439 3.179564 3.146061 -3.069751 0.000000 0.000000 0.000000 1.822260 -2.731678 -17.725207 -1.170107 0.827320 0.218306 -0.251357 0.235633 0.748877 0.000000 0.000000 0.000000
-71.142149 79.138659 324.351117 -1.443655 1.193412 17.416483 0.418817 -0.414545 -17.431871 -0.010028 0.429276 -0.051380 1.602453 0.168688 0.669329 0.000000 0.000000 0.000000 0.422650 -2.136765 0.113264 -1.052776 -2.317346 0.388180 -3.150307 2.875769 1.687983 -14.104625 -6.595119 5.369790 0.000000 0.000000 0.000000 0.000000 0.000000 0.000000 -6.966999 -0.549263 0.550981 65.540738 -28.778366 0.395919 9.921091 37.845664 -37.620195 2.924021 -1.457115 9.237214 0.000000 0.000000 0.000000 0.000000 0.000000 0.000000 2.737970 -3.431567 -17.083281 -2.187874 1.273056 -0.204912 0.702122 9.608302 -2.157406 0.000000 0.000000 0.000000 1.923054 -2.673396 -17.552012 -1.192664 0.779166 0.206078 -0.265672 0.222493 0.815434 0.000000 0.000000 0.000000
-71.149266 79.111767 324.379607 -1.414415 1.154187 17.251155 0.353779 -0.386018 -17.269449 0.001141 0.419888 -0.051827 1.752177 0.312063 0.712979 0.000000 0.000000 0.000000 0.141789 -3.022341 0.144163 -1.897119 5.064705 0.861679 -4.015168 3.188567 2.934178 -13.234414 -6.833176 6.100036 0.000000 0.000000 0.000000 0.000000 0.000000 0.000000 -5.607833 -1.917362 -0.183685 57.690599 -25.444208 -5.315571 3.748192 31.953596 -39.493219 4.635091 3.890912 11.089358 0.000000 0.000000 0.000000 0.000000 0.000000 0.000000 2.723098 -3.376346 -16.921817 -2.179587 1.274239 -0.204193 -2.087972 17.682681 -1.043292 0.000000 0.000000 0.000000 1.890895 -2.543335 -17.373232 -1.146619 0.711688 0.188125 -0.270080 0.208436 0.845120 0.000000 0.000000 0.000000
